<?xml version="1.0" standalone="no"?>
<!DOCTYPE svg PUBLIC "-//W3C//DTD SVG 20010904//EN"
 "http://www.w3.org/TR/2001/REC-SVG-20010904/DTD/svg10.dtd">
<svg version="1.0" xmlns="http://www.w3.org/2000/svg"
 width="205.000000pt" height="205.000000pt" viewBox="0 0 205.000000 205.000000"
 preserveAspectRatio="xMidYMid meet">
<metadata>
Created by potrace 1.11, written by Peter Selinger 2001-2013
</metadata>
<g transform="translate(0.000000,205.000000) scale(0.100000,-0.100000)"
fill="#000000" stroke="none">
<path d="M940 2020 c-236 -23 -462 -136 -629 -315 -116 -125 -190 -259 -239
-433 -24 -88 -27 -112 -26 -262 1 -184 15 -256 77 -399 89 -205 268 -395 467
-496 130 -66 298 -105 449 -105 157 0 360 58 481 136 61 39 47 39 -48 -1 -169
-71 -382 -93 -552 -57 -297 62 -532 237 -660 492 -208 414 -94 910 270 1180
326 242 772 249 1113 18 32 -22 74 -54 94 -71 61 -54 22 3 -45 64 -198 184
-475 275 -752 249z"/>
<path d="M1162 1865 c161 -27 295 -86 417 -184 334 -266 415 -749 184 -1105
-328 -508 -1065 -499 -1400 17 -43 65 -103 196 -103 223 0 7 -4 15 -9 18 -14
9 9 -96 40 -176 58 -151 181 -305 314 -395 82 -55 145 -86 245 -119 78 -25 98
-28 240 -28 181 -1 268 17 407 86 177 88 314 228 403 413 62 129 80 202 87
351 6 139 -10 240 -58 366 -122 316 -455 552 -772 547 l-72 -1 77 -13z"/>
<path d="M613 1519 c-61 -24 -113 -79 -139 -148 -14 -37 -18 -90 -22 -281 -4
-262 4 -337 46 -415 42 -77 113 -115 215 -115 59 0 102 21 127 62 l19 32 11
-30 c6 -16 13 -35 15 -41 3 -8 24 -13 60 -13 l55 0 0 240 0 240 -140 0 -140 0
0 -55 0 -55 71 0 71 0 -7 -67 c-14 -139 -49 -193 -125 -193 -58 0 -87 18 -112
69 -22 44 -23 56 -23 306 0 278 2 292 53 338 27 25 94 33 132 17 39 -16 59
-54 67 -130 l6 -60 68 0 69 0 0 42 c0 23 -8 69 -17 102 -21 74 -85 145 -149
164 -61 18 -151 14 -211 -9z"/>
<path d="M1100 1050 l0 -480 75 0 75 0 0 155 c0 148 1 157 27 210 15 30 30 55
33 55 3 0 41 -94 85 -210 l80 -210 89 0 c79 0 88 2 83 18 -3 9 -55 138 -116
286 -61 148 -111 272 -111 276 0 4 45 89 100 190 55 101 100 185 100 187 0 1
-39 3 -88 3 l-87 0 -97 -192 -97 -193 0 193 -1 192 -75 0 -75 0 0 -480z"/>
</g>
</svg>
